<svg xmlns="http://www.w3.org/2000/svg" width="1508" height="309" viewBox="0 0 1508 309" fill="none"><path d="M464.212 151.612C481.047 143.326 489.339 130.52 489.339 113.194V112.44C489.591 101.643 485.57 91.348 477.781 83.5638C467.981 73.7709 453.407 69 434.059 69H373V239.749H435.818C454.412 239.749 469.238 235.731 480.042 227.445C491.098 219.41 496.626 207.859 496.626 193.044V192.04C496.626 172.705 485.822 159.145 464.212 151.612ZM401.143 94.3612H432.3C441.346 94.3612 448.382 96.37 453.407 100.388C458.433 104.405 461.197 110.683 460.946 117.211V117.714C461.448 124.744 458.182 131.273 452.654 135.542C447.377 139.559 439.839 141.819 430.29 141.819H400.64L401.143 94.3612ZM468.484 190.282C468.986 197.313 465.72 203.841 460.192 208.11C454.412 212.379 446.874 214.388 436.823 214.388H401.143V165.674H435.567C446.12 165.674 454.161 167.934 459.94 172.203C465.468 176.22 468.735 182.749 468.484 189.78V190.282ZM948.164 183L873.033 69.2511H846.65V240H874.541V122.736L951.933 240H975.804V69.2511H948.164V183ZM1064 69.2511H1011.74V240H1064C1088.12 240 1107.72 232.216 1122.55 216.396C1137.37 200.828 1144.91 180.489 1144.91 155.379V153.37C1144.91 128.26 1137.37 107.921 1122.55 92.6035C1107.97 77.0352 1088.37 69.2511 1064 69.2511ZM1115.76 155.379C1115.76 173.709 1110.99 187.771 1101.69 198.317C1092.39 208.863 1079.58 213.885 1064 213.885H1040.38V94.3612H1064C1079.83 94.3612 1092.39 99.6343 1101.69 110.181C1110.99 120.727 1115.76 135.291 1115.76 153.37V155.379ZM1174.06 69.2511H1202.45V240H1174.06V69.2511ZM1239.39 239.749H1267.78V167.432H1337.39V141.568H1267.78V95.3656H1346.43V69.2511H1239.39V239.749ZM1476.59 69.2511L1436.64 143.075L1397.19 69.2511H1364.77L1422.32 171.952V240H1450.71V171.7L1508 69.2511H1476.59ZM736.843 69.2511L674.528 240H703.173L719.254 194.048H781.57L797.651 240H827.05L764.735 69.2511H736.843ZM728.3 168.938L750.663 106.163L773.027 168.938H728.3ZM644.626 155.379C650.908 147.092 654.174 136.546 654.174 123.74V122.736C654.174 107.167 649.4 94.6123 640.103 85.0705C629.298 74.5242 614.222 69 594.371 69H532.558V239.749H560.952V179.485H587.085L623.519 239.749H656.185L616.986 175.467C628.293 172.203 638.093 164.921 644.626 155.379ZM560.952 95.1145H591.859C602.412 95.1145 610.955 97.6255 616.735 102.648C622.765 107.67 625.529 114.952 625.529 124.493V124.996C626.032 133.031 622.765 141.066 616.735 146.59C610.704 151.863 602.412 154.626 591.607 154.626H560.952V95.1145Z" fill="black"></path><path d="M0 44L135 309V99.2607L0 44Z" fill="black"></path><path d="M0 43.7208L134.376 0L268 43.7208L134.376 99L0 43.7208Z" fill="#59585B"></path><path d="M135 99.2607L268 44L135 309" fill="#59585B"></path></svg>