<svg xmlns="http://www.w3.org/2000/svg" width="1184" height="353" viewBox="0 0 1184 353" fill="none"><path d="M1148.49 87.0076V202.454L1052.19 92.9241C1049.86 90.2671 1046.77 88.3839 1043.34 87.5252C1039.91 86.6666 1036.3 86.8733 1032.99 88.1178C1029.68 89.3623 1026.83 91.5856 1024.81 94.4916C1022.8 97.3975 1021.72 100.848 1021.71 104.384V265.969H1056.51V150.573L1152.84 260.102C1155.18 262.751 1158.27 264.627 1161.7 265.479C1165.12 266.332 1168.73 266.12 1172.03 264.874C1175.34 263.627 1178.19 261.404 1180.2 258.501C1182.21 255.597 1183.29 252.149 1183.3 248.617V87.0325L1148.49 87.0076Z" fill="black"></path><path d="M897.415 87.0071C879.715 87.0071 862.412 92.2557 847.695 102.089C832.978 111.923 821.508 125.9 814.734 142.253C807.961 158.605 806.188 176.599 809.641 193.959C813.095 211.319 821.618 227.265 834.134 239.781C846.65 252.297 862.596 260.82 879.956 264.273C897.316 267.727 915.31 265.954 931.662 259.181C948.015 252.407 961.992 240.937 971.826 226.22C981.659 211.503 986.908 194.2 986.908 176.5C986.908 152.765 977.479 130.002 960.696 113.219C943.913 96.4358 921.15 87.0071 897.415 87.0071ZM897.415 231.19C886.598 231.19 876.024 227.983 867.031 221.973C858.037 215.964 851.027 207.422 846.888 197.429C842.748 187.436 841.665 176.439 843.776 165.831C845.886 155.222 851.095 145.477 858.743 137.828C866.392 130.18 876.137 124.971 886.745 122.861C897.354 120.751 908.351 121.834 918.344 125.973C928.337 130.112 936.879 137.122 942.888 146.116C948.898 155.11 952.105 165.683 952.105 176.5C952.105 191.005 946.343 204.915 936.087 215.172C925.83 225.428 911.92 231.19 897.415 231.19Z" fill="black"></path><path d="M780.578 265.993V231.19H671.197V193.901H763.176V159.098H671.197V121.81H780.578V87.0068H653.796C649.181 87.0068 644.755 88.8402 641.491 92.1036C638.228 95.367 636.395 99.7931 636.395 104.408V248.591C636.395 253.206 638.228 257.633 641.491 260.896C644.755 264.159 649.181 265.993 653.796 265.993H780.578Z" fill="black"></path><path d="M512.097 87.0068H440.006V265.993H512.097C535.832 265.993 558.595 256.564 575.378 239.781C592.162 222.998 601.59 200.235 601.59 176.5C601.59 152.765 592.162 130.002 575.378 113.219C558.595 96.4355 535.832 87.0068 512.097 87.0068ZM512.097 231.19H474.809V121.81H512.097C526.602 121.81 540.513 127.572 550.769 137.828C561.026 148.084 566.788 161.995 566.788 176.5C566.788 191.005 561.026 204.915 550.769 215.172C540.513 225.428 526.602 231.19 512.097 231.19Z" fill="black"></path><path d="M59.662 236.162C92.6124 236.162 119.324 209.451 119.324 176.5C119.324 143.55 92.6124 116.838 59.662 116.838C26.7116 116.838 0 143.55 0 176.5C0 209.451 26.7116 236.162 59.662 236.162Z" fill="black"></path><path d="M144.183 119.324C177.134 119.324 203.845 92.6124 203.845 59.662C203.845 26.7116 177.134 0 144.183 0C111.233 0 84.5215 26.7116 84.5215 59.662C84.5215 92.6124 111.233 119.324 144.183 119.324Z" fill="black"></path><path d="M280.908 164.071C313.858 164.071 340.57 137.359 340.57 104.409C340.57 71.4582 313.858 44.7466 280.908 44.7466C247.958 44.7466 221.246 71.4582 221.246 104.409C221.246 137.359 247.958 164.071 280.908 164.071Z" fill="black"></path><path d="M280.908 308.254C313.858 308.254 340.57 281.542 340.57 248.592C340.57 215.641 313.858 188.93 280.908 188.93C247.958 188.93 221.246 215.641 221.246 248.592C221.246 281.542 247.958 308.254 280.908 308.254Z" fill="black"></path><path d="M144.183 353C177.134 353 203.845 326.289 203.845 293.338C203.845 260.388 177.134 233.676 144.183 233.676C111.233 233.676 84.5215 260.388 84.5215 293.338C84.5215 326.289 111.233 353 144.183 353Z" fill="black"></path></svg>