<svg xmlns="http://www.w3.org/2000/svg" width="1520" height="256" viewBox="0 0 1520 256" fill="none"><path d="M181.019 19.3759C184.071 21.7237 187.094 24.1091 190.08 26.5405C191.354 27.4893 192.628 28.4381 193.942 29.4157C215.222 46.025 229.381 74.2046 233.182 100.598C236.801 134.648 228.585 164.069 208.202 191.452C206.748 193.484 205.294 195.517 203.797 197.611C183.135 221.509 152.204 232.78 121.643 236.411C90.304 237.385 61.3916 225.946 37.6795 205.906C17.0477 186.413 1.3694 160.597 0.0592779 131.802C-0.706163 92.3907 5.69871 63.4249 33.4873 33.8229C43.6797 24.3274 54.8237 16.7239 67.2534 10.4516C68.8861 9.61681 70.5187 8.78204 72.2008 7.92197C106.051 -6.23519 150.921 -0.814753 181.019 19.3759ZM51.0192 69.4023C37.4853 88.1524 32.727 108.673 35.5952 131.55C39.6003 153.228 50.7754 171.319 68.2602 184.664C88.5723 198.28 110.733 202.286 134.581 198.239C155.779 192.853 174.041 180.178 185.557 161.631C197.573 139.073 201.425 117.664 194.366 92.75C186.472 71.4705 172.185 54.8512 151.822 44.6405C150.597 44.0261 149.372 43.4116 148.11 42.7786C111.901 26.0443 75.8629 41.581 51.0192 69.4023Z" fill="black"></path><path d="M314.29 33.9562C316.739 33.8979 319.188 33.8395 321.711 33.7794C341.021 33.6449 358.571 35.8965 373.312 49.2909C385.581 63.3081 386.531 75.2271 386.078 93.5825C384.741 107.981 380.198 116.996 369.663 126.844C351.391 141.498 334.643 141.174 310.892 141.174C310.892 161.747 310.892 182.321 310.892 203.518C305.286 203.559 299.68 203.601 293.903 203.644C292.134 203.662 290.366 203.68 288.543 203.699C284.583 203.714 280.622 203.619 276.662 203.518C273.153 200.013 274.407 195.461 274.398 190.791C274.405 189.256 274.413 187.722 274.42 186.14C274.42 184.531 274.419 182.923 274.419 181.265C274.421 175.922 274.436 170.579 274.452 165.236C274.456 161.542 274.459 157.847 274.461 154.153C274.468 144.409 274.488 134.666 274.51 124.922C274.531 114.988 274.54 105.053 274.55 95.1183C274.572 75.6108 274.606 56.1033 274.649 36.5958C287.932 34.2854 300.825 34.0614 314.29 33.9562ZM310.892 62.7402C310.717 66.4682 310.677 70.2028 310.696 73.9349C310.702 76.1968 310.709 78.4587 310.715 80.7892C310.732 83.1703 310.749 85.5515 310.767 88.0048C310.776 90.3937 310.785 92.7827 310.794 95.244C310.818 101.169 310.851 107.093 310.892 113.018C314.458 113.086 318.024 113.135 321.589 113.175C323.575 113.204 325.561 113.233 327.606 113.264C334.391 112.957 338.002 111.448 343.109 106.985C348.972 100.292 351.002 95.077 351.667 86.1194C351.001 76.4792 348.327 71.5736 341.096 65.2541C334.575 61.1835 329.231 60.4533 321.715 60.4777C320.111 60.4725 318.507 60.4674 316.854 60.462C312.899 60.2953 312.899 60.2953 310.892 62.7402Z" fill="black"></path><path d="M151.381 70.9812C163.693 80.2351 171.094 94.1115 173.97 108.996C176.107 126.232 170.93 141.411 161.637 155.88C146.496 170.017 131.935 176.166 111.44 175.92C95.7583 174.445 81.5767 167.159 71.2796 155.251C60.7166 139.495 57.4145 125.906 59.1984 106.985C63.0986 91.6253 70.5514 78.6691 83.8564 69.7714C106.296 56.8538 129.135 57.2893 151.381 70.9812Z" fill="black"></path><path d="M1256.16 80.3691C1267.8 86.6775 1272.98 96.8744 1277.39 108.996C1279.95 118.61 1279.7 128.129 1279.67 138C1279.68 139.811 1279.68 141.622 1279.68 143.488C1279.68 147.302 1279.68 151.115 1279.67 154.929C1279.66 160.789 1279.67 166.65 1279.68 172.511C1279.68 176.216 1279.68 179.922 1279.67 183.627C1279.68 185.389 1279.68 187.15 1279.69 188.966C1279.64 201.276 1279.64 201.276 1277.39 203.518C1271.63 203.666 1265.91 203.704 1260.15 203.644C1258.53 203.635 1256.91 203.626 1255.23 203.616C1251.21 203.593 1247.19 203.557 1243.16 203.518C1243.1 199.851 1243.1 199.851 1243.04 196.109C1242.89 187.019 1242.71 177.931 1242.52 168.842C1242.45 164.911 1242.38 160.981 1242.31 157.05C1242.22 151.394 1242.1 145.738 1241.98 140.082C1241.96 138.33 1241.94 136.578 1241.91 134.774C1241.7 126.102 1241.46 118.773 1237.12 111.007C1230.9 107.898 1225.86 108.406 1219 108.996C1214.24 112.751 1211.63 115.674 1208.93 121.063C1208.62 127.218 1208.41 133.333 1208.3 139.493C1208.25 141.317 1208.21 143.142 1208.17 145.021C1208.04 150.861 1207.92 156.702 1207.8 162.542C1207.71 166.496 1207.63 170.45 1207.54 174.404C1207.32 184.109 1207.12 193.813 1206.92 203.518C1201.26 203.572 1195.59 203.612 1189.93 203.644C1188.31 203.661 1186.7 203.678 1185.03 203.695C1180.92 203.712 1176.8 203.623 1172.69 203.518C1170.68 201.507 1170.68 201.507 1170.43 196.684C1170.44 194.545 1170.44 192.406 1170.45 190.202C1170.45 187.786 1170.45 185.371 1170.45 182.882C1170.46 180.253 1170.47 177.624 1170.48 174.915C1170.48 172.212 1170.49 169.51 1170.49 166.807C1170.5 159.682 1170.52 152.558 1170.54 145.433C1170.56 138.167 1170.57 130.901 1170.58 123.635C1170.6 109.37 1170.63 95.1055 1170.68 80.8405C1180.64 80.8405 1190.61 80.8405 1200.88 80.8405C1202.21 84.1588 1203.54 87.4771 1204.91 90.896C1205.85 90.1935 1206.8 89.4909 1207.78 88.7671C1209.03 87.8519 1210.28 86.9368 1211.58 85.9939C1212.81 85.084 1214.05 84.174 1215.33 83.2365C1226.57 75.9022 1243.71 76.4924 1256.16 80.3691Z" fill="black"></path><path d="M1402.23 80.8403C1414.86 80.8403 1427.48 80.8403 1440.49 80.8403C1444.36 91.1444 1447.78 100.743 1450.64 111.258C1450.99 112.53 1451.34 113.802 1451.7 115.112C1452.8 119.105 1453.88 123.1 1454.96 127.096C1455.71 129.833 1456.46 132.569 1457.21 135.305C1459.02 141.952 1460.83 148.601 1462.64 155.251C1467.79 136.217 1472.73 117.147 1477.41 97.9917C1477.82 96.3423 1478.23 94.6928 1478.64 92.9934C1479 91.5214 1479.36 90.0494 1479.74 88.5327C1480.76 84.8626 1480.76 84.8626 1482.77 80.8403C1494.73 80.8403 1506.7 80.8403 1519.02 80.8403C1516.32 93.8808 1512.82 106.326 1508.56 118.934C1507.93 120.796 1507.3 122.658 1506.66 124.577C1505.33 128.501 1504 132.424 1502.67 136.345C1500.67 142.232 1498.71 148.13 1496.74 154.03C1470.19 232.804 1470.19 232.804 1436.61 251.989C1430.05 254.993 1425.66 255.807 1418.34 255.807C1417.32 252.291 1416.32 248.771 1415.32 245.249C1414.76 243.289 1414.2 241.329 1413.62 239.31C1412.3 233.685 1412.3 233.685 1412.3 225.64C1413.49 225.054 1414.68 224.469 1415.91 223.865C1426.55 218.35 1433.89 213.613 1440.49 203.518C1444.02 192.086 1440.66 184.232 1436.45 173.595C1435.47 171.035 1435.47 171.035 1434.48 168.424C1432.4 162.975 1430.28 157.542 1428.16 152.109C1426.78 148.511 1425.4 144.911 1424.02 141.311C1419.09 128.437 1414.1 115.585 1409.06 102.751C1408.14 100.397 1407.22 98.0429 1406.28 95.6173C1405.48 93.6083 1404.69 91.5993 1403.88 89.5295C1402.23 84.8626 1402.23 84.8626 1402.23 80.8403Z" fill="black"></path><path d="M590.775 92.9069C606.669 111.724 608.493 131.262 606.883 155.251C604.117 171.545 597.398 184.642 584.357 194.971C569.686 204.622 552.561 207.997 535.457 204.516C519.169 200.222 508.728 194.157 499.536 179.887C488.506 160.027 487.382 139.555 493.244 117.794C498.846 101.222 506.872 91.2513 522.314 82.977C545.158 72.8517 572.195 75.3221 590.775 92.9069ZM530.368 117.04C523.998 129.765 524.489 145.452 527.726 159.061C530.699 167.513 532.957 172.258 540.184 177.751C547.488 179.647 551.417 179.854 558.558 177.374C567.035 169.142 570.204 160.122 571.245 148.48C571.48 126.183 571.48 126.183 561.201 106.985C546.639 100.695 538.551 104.06 530.368 117.04Z" fill="black"></path><path d="M1130.41 88.8847C1146.12 104.949 1148.73 123.146 1148.79 144.85C1148.53 149.218 1148.53 149.218 1146.51 153.24C1122.59 153.24 1098.67 153.24 1074.03 153.24C1080.14 168.635 1080.14 168.635 1087.75 173.32C1094.92 175.603 1100.62 176.031 1108.13 175.865C1110.58 175.813 1113.04 175.762 1115.56 175.708C1122.68 175.346 1129.45 174.682 1136.45 173.351C1139.32 181.376 1141.28 189.049 1142.49 197.485C1119.24 206.852 1093.57 208.947 1070 199.496C1055.37 191.872 1047.98 180.475 1042.32 165.299C1036.48 145.376 1039.2 124.512 1048.29 106.011C1056.84 91.871 1068.74 82.4203 1084.72 77.8236C1100.66 75.0864 1118.13 78.1237 1130.41 88.8847ZM1078.05 113.018C1076.06 119.987 1076.06 119.987 1074.03 127.096C1087.32 127.096 1100.6 127.096 1114.3 127.096C1113.9 111.975 1113.9 111.975 1108 105.979C1095.16 99.2854 1086.57 101.589 1078.05 113.018Z" fill="black"></path><path d="M806.224 30.5623C808.661 37.8666 807.488 40.7492 805.343 48.0338C804.764 50.0326 804.185 52.0314 803.589 54.0907C803.129 55.6177 802.67 57.1446 802.196 58.7179C800.906 58.4275 799.616 58.1372 798.287 57.838C777.651 53.115 777.651 53.115 757.899 58.7179C751.935 66.3756 751.534 70.7139 749.844 80.8401C761.805 80.8401 773.765 80.8401 786.088 80.8401C786.088 89.4678 786.088 98.0954 786.088 106.985C774.128 106.985 762.167 106.985 749.844 106.985C749.844 138.841 749.844 170.697 749.844 203.518C738.548 203.518 727.252 203.518 715.614 203.518C713.601 201.507 713.601 201.507 713.358 197.753C713.363 196.114 713.367 194.475 713.372 192.786C713.372 190.934 713.372 189.082 713.372 187.174C713.383 185.161 713.393 183.148 713.404 181.074C713.407 179.023 713.41 176.973 713.413 174.86C713.424 168.282 713.449 161.704 713.475 155.126C713.485 150.678 713.494 146.23 713.502 141.782C713.524 130.853 713.558 119.925 713.601 108.996C705.627 108 705.627 108 697.492 106.985C697.492 98.3569 697.492 89.7292 697.492 80.8401C705.466 79.8446 705.466 79.8446 713.601 78.829C713.751 77.2735 713.902 75.718 714.057 74.1154C716.344 56.0193 721.333 45.8055 735.12 33.9561C757.974 22.3278 782.28 21.1286 806.224 30.5623Z" fill="black"></path><path d="M1367.37 78.2009C1368.86 78.1895 1370.34 78.1782 1371.87 78.1665C1380.71 78.2847 1385.72 79.4734 1394.18 82.8516C1392.85 91.4792 1391.52 100.107 1390.15 108.996C1386.12 108.54 1382.09 108.083 1377.94 107.613C1366.41 106.762 1359.57 106.632 1349.88 113.018C1340.17 125.262 1338.16 135.992 1339.81 151.229C1342.98 160.996 1347.03 167.909 1355.92 173.352C1367.4 176.041 1378.66 175.597 1390.15 173.352C1391.48 181.979 1392.81 190.607 1394.18 199.496C1374.19 206.151 1353.08 208.745 1333.54 199.488C1318.65 190.991 1309.18 179.514 1303.57 163.296C1298.93 143.501 1301.06 124.368 1310.87 106.608C1318.97 93.9654 1330.22 84.628 1344.63 79.7642C1352.21 78.4151 1359.68 78.2578 1367.37 78.2009Z" fill="black"></path><path d="M934.336 78.3264C935.846 78.3109 937.357 78.2953 938.914 78.2793C946.645 78.3067 952.707 78.4927 959.253 82.8514C958.969 86.0784 958.673 89.3044 958.373 92.5299C958.209 94.3265 958.046 96.123 957.877 97.974C957.24 102.963 957.24 102.963 955.226 108.996C953.669 108.781 952.112 108.566 950.507 108.344C931.861 106.139 931.861 106.139 914.956 113.018C905.451 123.698 905.678 134.618 906.138 148.566C907.207 157.93 908.758 162.187 914.956 169.329C926.348 177.077 936.443 175.357 949.799 173.807C951.59 173.657 953.381 173.506 955.226 173.351C958.873 176.994 958.009 182.628 958.373 187.555C958.541 189.777 958.71 191.998 958.884 194.287C959.067 196.866 959.067 196.866 959.253 199.496C941.703 207.34 922.562 207.007 904.329 201.633C887.404 195.036 878.369 183.469 870.658 167.318C864.848 150.76 866.537 127.01 874.024 111.368C888.048 88.3809 907.566 78.0479 934.336 78.3264Z" fill="black"></path><path d="M478.017 78.8293C478.017 89.448 478.017 100.067 478.017 111.007C473.843 111.256 473.843 111.256 469.585 111.51C460.795 112.518 455.889 114.275 449.827 121.063C445.836 130.567 445.127 139.529 444.967 149.705C444.928 151.251 444.889 152.796 444.848 154.388C444.729 159.284 444.635 164.181 444.542 169.078C444.465 172.414 444.386 175.75 444.306 179.086C444.11 187.23 443.949 195.373 443.787 203.518C432.491 203.518 421.195 203.518 409.557 203.518C408.892 163.035 408.228 122.551 407.543 80.8405C418.174 80.8405 428.806 80.8405 439.76 80.8405C440.424 84.8224 441.089 88.8044 441.773 92.9071C442.651 92.0827 443.528 91.2583 444.432 90.4089C455.542 80.3685 462.593 75.7483 478.017 78.8293Z" fill="black"></path><path d="M981.402 80.8403C993.363 80.8403 1005.32 80.8403 1017.65 80.8403C1017.69 96.5386 1017.73 112.237 1017.75 127.935C1017.76 135.224 1017.78 142.512 1017.8 149.801C1017.82 156.829 1017.83 163.858 1017.84 170.886C1017.84 174.885 1017.86 178.883 1017.87 182.882C1017.87 186.505 1017.87 186.505 1017.87 190.202C1017.88 192.341 1017.88 194.48 1017.89 196.684C1017.65 201.507 1017.65 201.507 1015.63 203.518C1004.34 203.518 993.041 203.518 981.402 203.518C981.402 163.034 981.402 122.551 981.402 80.8403Z" fill="black"></path><path d="M812.264 80.8403C824.224 80.8403 836.185 80.8403 848.507 80.8403C848.553 96.5386 848.59 112.237 848.612 127.935C848.622 135.224 848.637 142.512 848.659 149.801C848.681 156.829 848.693 163.858 848.699 170.886C848.704 174.885 848.72 178.883 848.736 182.882C848.736 186.505 848.736 186.505 848.736 190.202C848.741 192.341 848.745 194.48 848.75 196.684C848.507 201.507 848.507 201.507 846.494 203.518C835.198 203.518 823.902 203.518 812.264 203.518C812.264 163.034 812.264 122.551 812.264 80.8403Z" fill="black"></path><path d="M625.004 123.074C645.602 123.074 666.201 123.074 687.424 123.074C687.424 131.038 687.424 139.002 687.424 147.207C666.825 147.207 646.227 147.207 625.004 147.207C625.004 139.243 625.004 131.279 625.004 123.074Z" fill="black"></path><path d="M1009.59 32.5737C1016.06 38.0636 1017.43 41.3071 1018.78 49.6681C1017.65 56.707 1017.65 56.707 1013.74 62.6147C1006.49 67.495 1002.24 68.1369 993.664 67.5953C989.456 66.7626 989.456 66.7626 984.423 63.6202C980.393 57.0798 979.523 52.3081 979.389 44.6404C981.81 38.9128 984.027 35.7261 988.827 31.8195C996.064 29.866 1002.45 30.3365 1009.59 32.5737Z" fill="black"></path><path d="M840.453 32.5737C846.92 38.0636 848.295 41.3071 849.64 49.6681C848.507 56.707 848.507 56.707 844.606 62.6147C837.351 67.495 833.101 68.1369 824.526 67.5953C820.318 66.7626 820.318 66.7626 815.284 63.6202C811.254 57.0798 810.385 52.3081 810.25 44.6404C812.671 38.9128 814.888 35.7261 819.688 31.8195C826.925 29.866 833.309 30.3365 840.453 32.5737Z" fill="black"></path></svg>